HIERARCHY
ROOT Hips
{
  OFFSET 126.96 91.9987 35.2002
  CHANNELS 6 Xposition Yposition Zposition Zrotation Xrotation Yrotation
  JOINT RightUpLeg
  {
    OFFSET -9.21262 -1.62705 0.0892923
    CHANNELS 3 Zrotation Xrotation Yrotation
    JOINT RightLeg
    {
      OFFSET 0.0960154 -41.8606 0.153467
      CHANNELS 3 Zrotation Xrotation Yrotation
      JOINT RightFoot
      {
        OFFSET 1.33859 -39.7491 3.70458
        CHANNELS 3 Zrotation Xrotation Yrotation
        End Site
        {
          OFFSET 0 -7.69 17.5
        }
      }
    }
  }
  JOINT LeftUpLeg
  {
    OFFSET 9.28909 -1.62806 0.0108209
    CHANNELS 3 Zrotation Xrotation Yrotation
    JOINT LeftLeg
    {
      OFFSET 0.0929201 -41.8886 0.0218006
      CHANNELS 3 Zrotation Xrotation Yrotation
      JOINT LeftFoot
      {
        OFFSET -1.57781 -41.3397 -3.31563
        CHANNELS 3 Zrotation Xrotation Yrotation
        End Site
        {
          OFFSET 0 -7.69 17.5
        }
      }
    }
  }
  JOINT Spine
  {
    OFFSET 0.0128959 14.3037 0.0259321
    CHANNELS 3 Zrotation Xrotation Yrotation
    JOINT Spine1
    {
      OFFSET 0.0143034 9.71252 0.015398
      CHANNELS 3 Zrotation Xrotation Yrotation
      JOINT Spine2
      {
        OFFSET 0.0468817 10.117 -0.0314137
        CHANNELS 3 Zrotation Xrotation Yrotation
        JOINT Spine3
        {
          OFFSET 0.0102655 9.71178 0.00221616
          CHANNELS 3 Zrotation Xrotation Yrotation
          JOINT Neck
          {
            OFFSET -0.0402596 10.3794 0.0231037
            CHANNELS 3 Zrotation Xrotation Yrotation
            JOINT Head
            {
              OFFSET -0.03453 9.49168 0.0708427
              CHANNELS 3 Zrotation Xrotation Yrotation
              End Site
              {
                OFFSET 0 15.95 0
              }
            }
          }
          JOINT RightShoulder
          {
            OFFSET -3.17991 6.93495 0.0309862
            CHANNELS 3 Zrotation Xrotation Yrotation
            JOINT RightArm
            {
              OFFSET -12.8253 0.0342167 0.035901
              CHANNELS 3 Zrotation Xrotation Yrotation
              JOINT RightForeArm
              {
                OFFSET -26.4423 -0.000685918 0.00421057
                CHANNELS 3 Zrotation Xrotation Yrotation
                JOINT RightHand
                {
                  OFFSET -25.9842 -0.0662606 -0.0268032
                  CHANNELS 3 Zrotation Xrotation Yrotation
                  JOINT RightHandThumb1
                  {
                    OFFSET -2.48905 0.190105 3.12053
                    CHANNELS 3 Zrotation Xrotation Yrotation
                    JOINT RightHandThumb2
                    {
                      OFFSET -3.68274 0 0
                      CHANNELS 3 Zrotation Xrotation Yrotation
                      JOINT RightHandThumb3
                      {
                        OFFSET -2.55832 0 0
                        CHANNELS 3 Zrotation Xrotation Yrotation
                        End Site
                        {
                          OFFSET -2.194 0 0
                        }
                      }
                    }
                  }
                  JOINT RightInHandIndex
                  {
                    OFFSET -3.22368 0.508421 1.97842
                    CHANNELS 3 Zrotation Xrotation Yrotation
                    JOINT RightHandIndex1
                    {
                      OFFSET -5.21684 -0.091368 0.999158
                      CHANNELS 3 Zrotation Xrotation Yrotation
                      JOINT RightHandIndex2
                      {
                        OFFSET -3.61937 0 0
                        CHANNELS 3 Zrotation Xrotation Yrotation
                        JOINT RightHandIndex3
                        {
                          OFFSET -2.0521 0 0
                          CHANNELS 3 Zrotation Xrotation Yrotation
                          End Site
                          {
                            OFFSET -1.805 0 0
                          }
                        }
                      }
                    }
                  }
                  JOINT RightInHandMiddle
                  {
                    OFFSET -3.38211 0.517263 0.756737
                    CHANNELS 3 Zrotation Xrotation Yrotation
                    JOINT RightHandMiddle1
                    {
                      OFFSET -5.17411 -0.084 0.313895
                      CHANNELS 3 Zrotation Xrotation Yrotation
                      JOINT RightHandMiddle2
                      {
                        OFFSET -3.94947 0 0
                        CHANNELS 3 Zrotation Xrotation Yrotation
                        JOINT RightHandMiddle3
                        {
                          OFFSET -2.47579 0 0
                          CHANNELS 3 Zrotation Xrotation Yrotation
                          End Site
                          {
                            OFFSET -1.975 0 0
                          }
                        }
                      }
                    }
                  }
                  JOINT RightInHandRing
                  {
                    OFFSET -3.36516 0.537895 -0.128947
                    CHANNELS 3 Zrotation Xrotation Yrotation
                    JOINT RightHandRing1
                    {
                      OFFSET -4.63474 -0.022105 -0.478947
                      CHANNELS 3 Zrotation Xrotation Yrotation
                      JOINT RightHandRing2
                      {
                        OFFSET -3.44238 0 0
                        CHANNELS 3 Zrotation Xrotation Yrotation
                        JOINT RightHandRing3
                        {
                          OFFSET -2.3881 0 0
                          CHANNELS 3 Zrotation Xrotation Yrotation
                          End Site
                          {
                            OFFSET -1.857 0 0
                          }
                        }
                      }
                    }
                  }
                  JOINT RightInHandPinky
                  {
                    OFFSET -3.16105 0.469368 -1.20179
                    CHANNELS 3 Zrotation Xrotation Yrotation
                    JOINT RightHandPinky1
                    {
                      OFFSET -4.14105 -0.022105 -1.09053
                      CHANNELS 3 Zrotation Xrotation Yrotation
                      JOINT RightHandPinky2
                      {
                        OFFSET -2.75653 0 0
                        CHANNELS 3 Zrotation Xrotation Yrotation
                        JOINT RightHandPinky3
                        {
                          OFFSET -1.74189 0 0
                          CHANNELS 3 Zrotation Xrotation Yrotation
                          End Site
                          {
                            OFFSET -1.645 0 0
                          }
                        }
                      }
                    }
                  }
                }
              }
            }
          }
          JOINT LeftShoulder
          {
            OFFSET 3.21113 6.90952 -0.0469957
            CHANNELS 3 Zrotation Xrotation Yrotation
            JOINT LeftArm
            {
              OFFSET 12.7919 -0.0331125 -0.0859637
              CHANNELS 3 Zrotation Xrotation Yrotation
              JOINT LeftForeArm
              {
                OFFSET 26.4755 -0.0026531 -0.0242133
                CHANNELS 3 Zrotation Xrotation Yrotation
                JOINT LeftHand
                {
                  OFFSET 25.9936 -0.03295 -0.105102
                  CHANNELS 3 Zrotation Xrotation Yrotation
                  JOINT LeftHandThumb1
                  {
                    OFFSET 2.48905 0.190105 3.12053
                    CHANNELS 3 Zrotation Xrotation Yrotation
                    JOINT LeftHandThumb2
                    {
                      OFFSET 3.68274 0 0
                      CHANNELS 3 Zrotation Xrotation Yrotation
                      JOINT LeftHandThumb3
                      {
                        OFFSET 2.55832 0 0
                        CHANNELS 3 Zrotation Xrotation Yrotation
                        End Site
                        {
                          OFFSET 2.194 0 0
                        }
                      }
                    }
                  }
                  JOINT LeftInHandIndex
                  {
                    OFFSET 3.22368 0.508421 1.97842
                    CHANNELS 3 Zrotation Xrotation Yrotation
                    JOINT LeftHandIndex1
                    {
                      OFFSET 5.21684 -0.091368 0.999158
                      CHANNELS 3 Zrotation Xrotation Yrotation
                      JOINT LeftHandIndex2
                      {
                        OFFSET 3.61937 0 0
                        CHANNELS 3 Zrotation Xrotation Yrotation
                        JOINT LeftHandIndex3
                        {
                          OFFSET 2.0521 0 0
                          CHANNELS 3 Zrotation Xrotation Yrotation
                          End Site
                          {
                            OFFSET 1.805 0 0
                          }
                        }
                      }
                    }
                  }
                  JOINT LeftInHandMiddle
                  {
                    OFFSET 3.38211 0.517263 0.756737
                    CHANNELS 3 Zrotation Xrotation Yrotation
                    JOINT LeftHandMiddle1
                    {
                      OFFSET 5.17411 -0.084 0.313895
                      CHANNELS 3 Zrotation Xrotation Yrotation
                      JOINT LeftHandMiddle2
                      {
                        OFFSET 3.94947 0 0
                        CHANNELS 3 Zrotation Xrotation Yrotation
                        JOINT LeftHandMiddle3
                        {
                          OFFSET 2.47579 0 0
                          CHANNELS 3 Zrotation Xrotation Yrotation
                          End Site
                          {
                            OFFSET 1.975 0 0
                          }
                        }
                      }
                    }
                  }
                  JOINT LeftInHandRing
                  {
                    OFFSET 3.36516 0.537895 -0.128947
                    CHANNELS 3 Zrotation Xrotation Yrotation
                    JOINT LeftHandRing1
                    {
                      OFFSET 4.63474 -0.022105 -0.478947
                      CHANNELS 3 Zrotation Xrotation Yrotation
                      JOINT LeftHandRing2
                      {
                        OFFSET 3.44238 0 0
                        CHANNELS 3 Zrotation Xrotation Yrotation
                        JOINT LeftHandRing3
                        {
                          OFFSET 2.3881 0 0
                          CHANNELS 3 Zrotation Xrotation Yrotation
                          End Site
                          {
                            OFFSET 1.857 0 0
                          }
                        }
                      }
                    }
                  }
                  JOINT LeftInHandPinky
                  {
                    OFFSET 3.16105 0.469368 -1.20179
                    CHANNELS 3 Zrotation Xrotation Yrotation
                    JOINT LeftHandPinky1
                    {
                      OFFSET 4.14105 -0.022105 -1.09053
                      CHANNELS 3 Zrotation Xrotation Yrotation
                      JOINT LeftHandPinky2
                      {
                        OFFSET 2.75653 0 0
                        CHANNELS 3 Zrotation Xrotation Yrotation
                        JOINT LeftHandPinky3
                        {
                          OFFSET 1.74189 0 0
                          CHANNELS 3 Zrotation Xrotation Yrotation
                          End Site
                          {
                            OFFSET 1.645 0 0
                          }
                        }
                      }
                    }
                  }
                }
              }
            }
          }
        }
      }
    }
  }
}
MOTION
Frames:	6
Frame Time:	0.00833333
144.588 88.2875 19.3265 11.2409 -21.4539 172.928 39.1585 -37.1333 56.9741 -7.64627 24.1692 22.3475 8.25925 3.24975 14.0339 32.5975 -14.2229 45.1838 -3.21108 36.741 24.0254 -21.2339 -14.3089 10.4782 -10.8282 -1.07106 -14.2965 -2.69418 -0.959532 -3.49343 -4.44771 -1.8529 -5.55302 -0.854462 -0.470371 2.80169 -4.92013 -3.19173 45.2916 -14.3143 6.26136 28.3116 1.73845 -6.38106 -5.584 54.7734 7.57308 -41.494 48.9487 -5.6842 -172.282 -14.455 3.21611 1.15497 28.184 10.7294 19.1592 4.35126e-15 6.36111e-15 -10 -3.51003e-15 -1.59028e-15 -10 0 0 -7.95139e-16 19.9818 0.871897 2.3964 24 -3.18055e-15 -3.18055e-15 20 3.97569e-16 -3.18055e-15 0 0 -7.95139e-16 20 -1.59028e-15 -4.77083e-15 24 -3.18055e-15 -0 20 -5.56597e-15 -6.36111e-15 0 0 -7.95139e-16 19.9748 -1.02565 -2.81938 24 1.59028e-15 -0 20 -1.59028e-15 9.54166e-15 0 0 -7.95139e-16 19.7815 -3.00948 -8.30515 24 0 6.36111e-15 20 2.38542e-15 3.18055e-15 3.74354 -21.0187 -17.3803 15.1329 23.674 -139.955 44.1729 2.25791 -12.0076 -52.849 -63.7905 -71.7441 -28.184 10.7294 -19.1592 3.01931e-15 1.19271e-15 10 -4.20613e-16 2.38542e-15 10 6.36111e-15 0 3.97569e-16 -19.9818 0.871897 -2.3964 -24 5.96354e-16 1.11319e-14 -20 -3.59055e-15 7.95139e-15 6.36111e-15 0 3.97569e-16 -20 -1.59028e-15 2.38542e-15 -24 -9.93923e-16 2.38542e-15 -20 -2.06239e-15 2.22639e-14 6.36111e-15 0 3.97569e-16 -19.9748 -1.02565 2.81938 -24 -4.77083e-15 8.74653e-15 -20 -3.50358e-15 1.27222e-14 6.36111e-15 0 3.97569e-16 -19.7815 -3.00948 8.30515 -24 -2.78299e-15 7.95139e-15 -20 -6.77731e-15 1.11319e-14 
144.526 88.2882 19.4179 11.313 -21.4784 173.012 39.2017 -37.1825 56.9304 -7.7155 24.1703 22.3833 8.29576 3.27688 14.0238 32.6669 -14.3822 45.2015 -3.16414 36.8595 24.0135 -21.2108 -14.3344 10.4451 -10.7988 -1.03432 -14.2334 -2.68751 -0.945274 -3.47989 -4.43666 -1.82774 -5.53384 -0.853308 -0.46652 2.80031 -4.91413 -3.17121 45.2023 -14.2943 6.28282 28.2651 1.73765 -6.38858 -5.54809 55.1158 7.5204 -41.3717 48.8275 -5.81322 -172.475 -14.5342 3.11611 1.12131 28.184 10.7294 19.1592 5.89842e-15 -3.18055e-15 -10 -7.02006e-15 -3.18055e-15 -10 2.64834e-31 -6.36111e-15 2.38542e-15 19.9818 0.871897 2.3964 24 -6.36111e-15 -1.27222e-14 20 -3.18055e-15 -1.27222e-14 2.64834e-31 -6.36111e-15 2.38542e-15 20 1.59028e-15 -7.95139e-15 24 -3.18055e-15 -9.54166e-15 20 -3.97569e-16 -1.90833e-14 2.64834e-31 -6.36111e-15 2.38542e-15 19.9748 -1.02565 -2.81938 24 -3.18055e-15 -9.54166e-15 20 -2.38542e-15 -9.54166e-15 2.64834e-31 -6.36111e-15 2.38542e-15 19.7815 -3.00948 -8.30515 24 -8.74653e-15 -9.54166e-15 20 5.96354e-16 -1.27222e-14 3.74336 -20.988 -17.3547 15.1599 23.7252 -139.977 44.1439 2.19475 -11.8172 -53.1271 -63.4576 -71.7055 -28.184 10.7294 -19.1592 -2.7389e-15 -2.78299e-15 10 7.30047e-15 -4.77083e-15 10 3.18055e-15 3.18055e-15 -2.78299e-15 -19.9818 0.871897 -2.3964 -24 1.59028e-15 7.15625e-15 -20 -4.9075e-16 1.43125e-14 3.18055e-15 3.18055e-15 -2.78299e-15 -20 3.18055e-15 2.38542e-15 -24 -7.95139e-15 1.98785e-14 -20 -1.3418e-15 8.74653e-15 3.18055e-15 3.18055e-15 -2.78299e-15 -19.9748 -1.02565 2.81938 -24 7.95139e-16 1.11319e-14 -20 -1.23619e-15 1.90833e-14 3.18055e-15 3.18055e-15 -2.78299e-15 -19.7815 -3.00948 8.30515 -24 -2.78299e-15 7.95139e-15 -20 -9.26834e-15 2.70347e-14 
144.47 88.29 19.5075 11.3935 -21.4983 173.124 39.2349 -37.2431 56.8584 -7.80372 24.1719 22.4172 8.34507 3.29563 14.0249 32.7245 -14.5273 45.2825 -3.06257 36.9524 23.9098 -21.1847 -14.3504 10.3947 -10.7753 -0.990372 -14.1687 -2.68367 -0.929499 -3.46625 -4.43014 -1.8002 -5.51451 -0.8519 -0.466493 2.79895 -4.9278 -3.1661 45.0714 -14.2844 6.23542 28.1842 1.73405 -6.38968 -5.51178 55.5061 7.45264 -41.2241 48.6937 -5.93728 -172.701 -14.6105 3.02851 1.1112 28.184 10.7294 19.1592 0 0 -10 -2.80409e-16 -1.59028e-15 -10 3.18055e-15 0 7.95139e-16 19.9818 0.871897 2.3964 24 0 3.18055e-15 20 2.38542e-15 1.90833e-14 3.18055e-15 0 7.95139e-16 20 3.18055e-15 3.18055e-15 24 3.18055e-15 3.18055e-15 20 2.38542e-15 6.36111e-15 3.18055e-15 0 7.95139e-16 19.9748 -1.02565 -2.81938 24 -1.59028e-15 1.27222e-14 20 6.75868e-15 1.27222e-14 3.18055e-15 0 7.95139e-16 19.7815 -3.00948 -8.30515 24 6.36111e-15 4.77083e-15 20 1.59028e-15 1.59028e-14 3.75209 -20.9086 -17.3501 15.1926 23.7401 -139.982 44.1094 2.14193 -11.5927 -53.4112 -63.1066 -71.6155 -28.184 10.7294 -19.1592 -3.29972e-15 3.97569e-16 10 3.58013e-15 -1.98785e-15 10 3.18055e-15 1.59028e-15 -3.97569e-16 -19.9818 0.871897 -2.3964 -24 -2.38542e-15 7.95139e-16 -20 5.2181e-16 -4.77083e-15 3.18055e-15 1.59028e-15 -3.97569e-16 -20 1.59028e-15 -3.97569e-15 -24 -3.18055e-15 1.59028e-15 -20 -4.83295e-15 3.18055e-15 3.18055e-15 1.59028e-15 -3.97569e-16 -19.9748 -1.02565 2.81938 -24 2.38542e-15 -7.95139e-16 -20 3.47252e-15 -7.15625e-15 3.18055e-15 1.59028e-15 -3.97569e-16 -19.7815 -3.00948 8.30515 -24 0 -7.95139e-15 -20 1.41634e-15 -3.18055e-15 
144.419 88.2955 19.596 11.4796 -21.5124 173.27 39.2507 -37.3191 56.7505 -7.9117 24.1789 22.4561 8.4086 3.29878 14.0325 32.7922 -14.6929 45.3621 -2.95227 37.0513 23.7963 -21.1517 -14.3531 10.3278 -10.7598 -0.935064 -14.1033 -2.68173 -0.91134 -3.45295 -4.42659 -1.76892 -5.49574 -0.850592 -0.462046 2.79758 -4.91832 -3.13863 44.9479 -14.2444 6.24234 28.119 1.71483 -6.36823 -5.52124 55.9558 7.38749 -41.017 48.5443 -6.14145 -172.899 -14.6997 2.88854 1.05195 28.184 10.7294 19.1592 -6.45924e-15 0 -10 -9.68886e-15 0 -10 4.41391e-32 3.18055e-15 -7.95139e-16 19.9818 0.871897 2.3964 24 -3.18055e-15 -6.36111e-15 20 1.19271e-15 1.90833e-14 4.41391e-32 3.18055e-15 -7.95139e-16 20 0 -7.95139e-15 24 0 -3.18055e-15 20 -2.38542e-15 1.59028e-14 4.41391e-32 3.18055e-15 -7.95139e-16 19.9748 -1.02565 -2.81938 24 -4.77083e-15 6.36111e-15 20 -1.98785e-15 6.36111e-15 4.41391e-32 3.18055e-15 -7.95139e-16 19.7815 -3.00948 -8.30515 24 5.56597e-15 -1.27222e-14 20 -2.18663e-15 1.59028e-14 3.75727 -20.8092 -17.3661 15.236 23.7775 -139.951 44.1024 2.08825 -11.3783 -53.7045 -62.685 -71.83 -28.184 10.7294 -19.1592 -6.17883e-15 -1.59028e-15 10 -9.68886e-15 0 10 3.18055e-15 -2.38542e-15 1.19271e-15 -19.9818 0.871897 -2.3964 -24 4.57205e-15 -1.51076e-14 -20 1.37286e-15 -1.82882e-14 3.18055e-15 -2.38542e-15 1.19271e-15 -20 7.95139e-16 -5.56597e-15 -24 7.95139e-16 -4.77083e-15 -20 2.6339e-15 -1.82882e-14 3.18055e-15 -2.38542e-15 1.19271e-15 -19.9748 -1.02565 2.81938 -24 7.95139e-16 -9.54166e-15 -20 1.47846e-15 -1.59028e-15 3.18055e-15 -2.38542e-15 1.19271e-15 -19.7815 -3.00948 8.30515 -24 3.97569e-16 -6.36111e-15 -20 3.54085e-15 1.59028e-15 
144.372 88.3022 19.6878 11.5702 -21.5265 173.445 39.2561 -37.4069 56.6169 -8.02482 24.1939 22.4952 8.46902 3.28529 14.041 32.865 -14.8737 45.433 -2.84215 37.1374 23.6868 -21.1075 -14.3355 10.2489 -10.7506 -0.873118 -14.0369 -2.68005 -0.891863 -3.43966 -4.4234 -1.73559 -5.47696 -0.848716 -0.454007 2.79617 -4.89277 -3.09571 44.8296 -14.1819 6.28436 28.0646 1.67929 -6.33754 -5.5623 56.447 7.31161 -40.7728 48.3776 -6.34147 -173.14 -14.8083 2.71083 0.985133 28.184 10.7294 19.1592 -2.10798e-15 6.36111e-15 -10 -1.82561e-14 6.36111e-15 -10 -3.18055e-15 0 -0 19.9818 0.871897 2.3964 24 3.18055e-15 -3.18055e-15 20 -2.38542e-15 -2.54444e-14 -3.18055e-15 0 -0 20 0 -0 24 -4.77083e-15 -9.54166e-15 20 -6.36111e-15 -1.59028e-14 -3.18055e-15 0 -0 19.9748 -1.02565 -2.81938 24 0 -9.54166e-15 20 -7.15625e-15 -2.22639e-14 -3.18055e-15 0 -0 19.7815 -3.00948 -8.30515 24 -4.77083e-15 -9.54166e-15 20 1.98785e-15 -2.22639e-14 3.76031 -20.7029 -17.3905 15.296 23.8431 -139.906 44.1308 2.03485 -11.1659 -54.0254 -62.1932 -72.3557 -28.184 10.7294 -19.1592 -5.75822e-15 -3.97569e-15 10 8.41226e-16 -4.77083e-15 10 -3.18055e-15 0 3.97569e-15 -19.9818 0.871897 -2.3964 -24 3.18055e-15 -1.35174e-14 -20 6.1996e-15 -2.8625e-14 -3.18055e-15 0 3.97569e-15 -20 -2.38542e-15 -1.59028e-15 -24 -4.37326e-15 -1.11319e-14 -20 1.67725e-16 -1.51076e-14 -3.18055e-15 0 3.97569e-15 -19.9748 -1.02565 2.81938 -24 7.95139e-16 -1.35174e-14 -20 9.34133e-15 -1.74931e-14 -3.18055e-15 0 3.97569e-15 -19.7815 -3.00948 8.30515 -24 3.97569e-16 -9.54166e-15 -20 4.5472e-15 -3.02153e-14 
144.328 88.3097 19.7837 11.6665 -21.5439 173.64 39.2425 -37.5577 56.4578 -8.09588 24.2276 22.5394 8.52965 3.27118 14.0477 32.9329 -15.0521 45.5182 -2.72925 37.2023 23.5522 -21.0495 -14.3174 10.1676 -10.7379 -0.804491 -13.9641 -2.67798 -0.870187 -3.42515 -4.41947 -1.69846 -5.45654 -0.842801 -0.444331 2.79469 -4.84399 -3.04142 44.8796 -14.1074 6.39038 28.1103 1.63217 -6.31854 -5.61553 56.9748 7.23133 -40.5242 48.1604 -6.41963 -173.461 -14.8344 2.91616 1.30781 28.184 10.7294 19.1592 7.58087e-15 6.36111e-15 -10 -2.80409e-16 -1.59028e-15 -10 8.82781e-32 6.36111e-15 -7.95139e-16 19.9818 0.871897 2.3964 24 -3.18055e-15 -6.36111e-15 20 -3.97569e-16 -3.18055e-15 8.82781e-32 6.36111e-15 -7.95139e-16 20 3.18055e-15 1.59028e-15 24 -4.77083e-15 3.18055e-15 20 3.97569e-15 -3.18055e-15 8.82781e-32 6.36111e-15 -7.95139e-16 19.9748 -1.02565 -2.81938 24 -1.59028e-15 -6.36111e-15 20 3.97569e-16 -3.18055e-15 8.82781e-32 6.36111e-15 -7.95139e-16 19.7815 -3.00948 -8.30515 24 -3.97569e-15 -3.18055e-15 20 -5.1684e-15 -0 3.75619 -20.6067 -17.4255 15.3873 23.7207 -140.032 44.0639 1.96361 -10.7101 -54.3829 -61.6716 -72.8868 -28.184 10.7294 -19.1592 -2.31829e-15 -5.1684e-15 10 1.06002e-14 -5.1684e-15 10 3.18055e-15 4.77083e-15 2.38542e-15 -19.9818 0.871897 -2.3964 -24 4.77083e-15 -8.74653e-15 -20 -2.35436e-15 7.95139e-16 3.18055e-15 4.77083e-15 2.38542e-15 -20 2.38542e-15 -6.36111e-15 -24 -2.38542e-15 -7.15625e-15 -20 -1.67103e-15 3.18055e-15 3.18055e-15 4.77083e-15 2.38542e-15 -19.9748 -1.02565 2.81938 -24 8.34896e-15 3.18055e-15 -20 7.74639e-15 6.36111e-15 3.18055e-15 4.77083e-15 2.38542e-15 -19.7815 -3.00948 8.30515 -24 -3.57812e-15 3.18055e-15 -20 -1.6524e-15 1.27222e-14 
